<?xml version="1.0" encoding="UTF-8"?>
<!--Generator: Apple Native CoreSVG 175.5-->
<!DOCTYPE svg
PUBLIC "-//W3C//DTD SVG 1.1//EN"
       "http://www.w3.org/Graphics/SVG/1.1/DTD/svg11.dtd">
<svg version="1.1" xmlns="http://www.w3.org/2000/svg" xmlns:xlink="http://www.w3.org/1999/xlink" width="3300" height="2200">
 <!--glyph: "uni10035F.medium", point size: 100.0, font version: "18.0d12e2", template writer version: "101"-->
 <style>.monochrome-0 {fill:#000000}

.multicolor-0:systemGrayColor {fill:#8E8E93}

.SFSymbolsPreview8E8E93 {fill:#8E8E93;opacity:1.0}
</style>
 <g id="Notes">
  <rect height="2200" id="artboard" style="fill:white;opacity:1" width="3300" x="0" y="0"/>
  <line style="fill:none;stroke:black;opacity:1;stroke-width:0.5;" x1="263" x2="3036" y1="292" y2="292"/>
  <text style="stroke:none;fill:black;font-family:sans-serif;font-size:13;font-weight:bold;" transform="matrix(1 0 0 1 263 322)">Weight/Scale Variations</text>
  <text style="stroke:none;fill:black;font-family:sans-serif;font-size:13;text-anchor:middle;" transform="matrix(1 0 0 1 559.711 322)">Ultralight</text>
  <text style="stroke:none;fill:black;font-family:sans-serif;font-size:13;text-anchor:middle;" transform="matrix(1 0 0 1 856.422 322)">Thin</text>
  <text style="stroke:none;fill:black;font-family:sans-serif;font-size:13;text-anchor:middle;" transform="matrix(1 0 0 1 1153.13 322)">Light</text>
  <text style="stroke:none;fill:black;font-family:sans-serif;font-size:13;text-anchor:middle;" transform="matrix(1 0 0 1 1449.84 322)">Regular</text>
  <text style="stroke:none;fill:black;font-family:sans-serif;font-size:13;text-anchor:middle;" transform="matrix(1 0 0 1 1746.56 322)">Medium</text>
  <text style="stroke:none;fill:black;font-family:sans-serif;font-size:13;text-anchor:middle;" transform="matrix(1 0 0 1 2043.27 322)">Semibold</text>
  <text style="stroke:none;fill:black;font-family:sans-serif;font-size:13;text-anchor:middle;" transform="matrix(1 0 0 1 2339.98 322)">Bold</text>
  <text style="stroke:none;fill:black;font-family:sans-serif;font-size:13;text-anchor:middle;" transform="matrix(1 0 0 1 2636.69 322)">Heavy</text>
  <text style="stroke:none;fill:black;font-family:sans-serif;font-size:13;text-anchor:middle;" transform="matrix(1 0 0 1 2933.4 322)">Black</text>
  <line style="fill:none;stroke:black;opacity:1;stroke-width:0.5;" x1="263" x2="3036" y1="1903" y2="1903"/>
  <g transform="matrix(1 0 0 1 263 1933)">
   <path d="M9.24805 0.830078C13.5547 0.830078 17.1387-2.74414 17.1387-7.05078C17.1387-11.3574 13.5449-14.9316 9.23828-14.9316C4.94141-14.9316 1.36719-11.3574 1.36719-7.05078C1.36719-2.74414 4.95117 0.830078 9.24805 0.830078ZM9.24805-0.654297C5.70312-0.654297 2.87109-3.49609 2.87109-7.05078C2.87109-10.6055 5.69336-13.4473 9.23828-13.4473C12.793-13.4473 15.6445-10.6055 15.6445-7.05078C15.6445-3.49609 12.8027-0.654297 9.24805-0.654297ZM5.6543-7.05078C5.6543-6.62109 5.95703-6.32812 6.40625-6.32812L8.50586-6.32812L8.50586-4.20898C8.50586-3.76953 8.79883-3.4668 9.22852-3.4668C9.67773-3.4668 9.9707-3.76953 9.9707-4.20898L9.9707-6.32812L12.0898-6.32812C12.5293-6.32812 12.832-6.62109 12.832-7.05078C12.832-7.49023 12.5293-7.79297 12.0898-7.79297L9.9707-7.79297L9.9707-9.90234C9.9707-10.3516 9.67773-10.6543 9.22852-10.6543C8.79883-10.6543 8.50586-10.3516 8.50586-9.90234L8.50586-7.79297L6.40625-7.79297C5.95703-7.79297 5.6543-7.49023 5.6543-7.05078Z"/>
  </g>
  <g transform="matrix(1 0 0 1 281.867 1933)">
   <path d="M11.709 2.91016C17.1582 2.91016 21.6699-1.61133 21.6699-7.05078C21.6699-12.5 17.1484-17.0117 11.6992-17.0117C6.25977-17.0117 1.74805-12.5 1.74805-7.05078C1.74805-1.61133 6.26953 2.91016 11.709 2.91016ZM11.709 1.25C7.09961 1.25 3.41797-2.44141 3.41797-7.05078C3.41797-11.6602 7.08984-15.3516 11.6992-15.3516C16.3086-15.3516 20.0098-11.6602 20.0098-7.05078C20.0098-2.44141 16.3184 1.25 11.709 1.25ZM7.17773-7.05078C7.17773-6.57227 7.50977-6.25 8.00781-6.25L10.8789-6.25L10.8789-3.36914C10.8789-2.88086 11.2109-2.53906 11.6895-2.53906C12.1777-2.53906 12.5195-2.87109 12.5195-3.36914L12.5195-6.25L15.4004-6.25C15.8887-6.25 16.2305-6.57227 16.2305-7.05078C16.2305-7.53906 15.8887-7.88086 15.4004-7.88086L12.5195-7.88086L12.5195-10.752C12.5195-11.25 12.1777-11.5918 11.6895-11.5918C11.2109-11.5918 10.8789-11.25 10.8789-10.752L10.8789-7.88086L8.00781-7.88086C7.50977-7.88086 7.17773-7.53906 7.17773-7.05078Z"/>
  </g>
  <g transform="matrix(1 0 0 1 305.646 1933)">
   <path d="M14.9707 5.66406C21.9336 5.66406 27.6953-0.0976562 27.6953-7.05078C27.6953-14.0137 21.9238-19.7754 14.9609-19.7754C8.00781-19.7754 2.25586-14.0137 2.25586-7.05078C2.25586-0.0976562 8.01758 5.66406 14.9707 5.66406ZM14.9707 3.84766C8.93555 3.84766 4.08203-1.01562 4.08203-7.05078C4.08203-13.0957 8.92578-17.9492 14.9609-17.9492C21.0059-17.9492 25.8691-13.0957 25.8691-7.05078C25.8691-1.01562 21.0156 3.84766 14.9707 3.84766ZM9.19922-7.05078C9.19922-6.5332 9.57031-6.17188 10.1172-6.17188L14.0625-6.17188L14.0625-2.2168C14.0625-1.67969 14.4336-1.29883 14.9512-1.29883C15.4883-1.29883 15.8594-1.66992 15.8594-2.2168L15.8594-6.17188L19.8145-6.17188C20.3516-6.17188 20.7324-6.5332 20.7324-7.05078C20.7324-7.59766 20.3613-7.96875 19.8145-7.96875L15.8594-7.96875L15.8594-11.9141C15.8594-12.4609 15.4883-12.8418 14.9512-12.8418C14.4336-12.8418 14.0625-12.4609 14.0625-11.9141L14.0625-7.96875L10.1172-7.96875C9.57031-7.96875 9.19922-7.59766 9.19922-7.05078Z"/>
  </g>
  <text style="stroke:none;fill:black;font-family:sans-serif;font-size:13;font-weight:bold;" transform="matrix(1 0 0 1 263 1953)">Design Variations</text>
  <text style="stroke:none;fill:black;font-family:sans-serif;font-size:13;" transform="matrix(1 0 0 1 263 1971)">Symbols are supported in up to nine weights and three scales.</text>
  <text style="stroke:none;fill:black;font-family:sans-serif;font-size:13;" transform="matrix(1 0 0 1 263 1989)">For optimal layout with text and other symbols, vertically align</text>
  <text style="stroke:none;fill:black;font-family:sans-serif;font-size:13;" transform="matrix(1 0 0 1 263 2007)">symbols with the adjacent text.</text>
  <line style="fill:none;stroke:#00AEEF;stroke-width:0.5;opacity:1.0;" x1="776" x2="776" y1="1919" y2="1933"/>
  <g transform="matrix(1 0 0 1 776 1933)">
   <path d="M3.31055 0.15625C3.82812 0.15625 4.08203-0.0390625 4.26758-0.585938L5.52734-4.0332L11.2891-4.0332L12.5488-0.585938C12.7344-0.0390625 12.9883 0.15625 13.4961 0.15625C14.0137 0.15625 14.3457-0.15625 14.3457-0.644531C14.3457-0.810547 14.3164-0.966797 14.2383-1.17188L9.6582-13.3691C9.43359-13.9648 9.0332-14.2676 8.4082-14.2676C7.80273-14.2676 7.39258-13.9746 7.17773-13.3789L2.59766-1.16211C2.51953-0.957031 2.49023-0.800781 2.49023-0.634766C2.49023-0.146484 2.80273 0.15625 3.31055 0.15625ZM6.00586-5.51758L8.37891-12.0898L8.42773-12.0898L10.8008-5.51758Z"/>
  </g>
  <line style="fill:none;stroke:#00AEEF;stroke-width:0.5;opacity:1.0;" x1="793.197" x2="793.197" y1="1919" y2="1933"/>
  <text style="stroke:none;fill:black;font-family:sans-serif;font-size:13;font-weight:bold;" transform="matrix(1 0 0 1 776 1953)">Margins</text>
  <text style="stroke:none;fill:black;font-family:sans-serif;font-size:13;" transform="matrix(1 0 0 1 776 1971)">Leading and trailing margins on the left and right side of each symbol</text>
  <text style="stroke:none;fill:black;font-family:sans-serif;font-size:13;" transform="matrix(1 0 0 1 776 1989)">can be adjusted by modifying the x-location of the margin guidelines.</text>
  <text style="stroke:none;fill:black;font-family:sans-serif;font-size:13;" transform="matrix(1 0 0 1 776 2007)">Modifications are automatically applied proportionally to all</text>
  <text style="stroke:none;fill:black;font-family:sans-serif;font-size:13;" transform="matrix(1 0 0 1 776 2025)">scales and weights.</text>
  <g transform="matrix(1 0 0 1 1289 1933)">
   <path d="M2.8418 1.86523L4.54102 3.57422C5.40039 4.44336 6.38672 4.38477 7.31445 3.35938L18.0078-8.42773L17.041-9.4043L6.42578 2.27539C6.07422 2.67578 5.74219 2.77344 5.27344 2.30469L4.10156 1.14258C3.63281 0.683594 3.74023 0.341797 4.14062-0.0195312L15.6152-10.8203L14.6387-11.7871L3.04688-0.898438C2.06055 0.0195312 1.98242 0.996094 2.8418 1.86523ZM9.25781-16.3281C8.83789-15.918 8.80859-15.3418 9.04297-14.9512C9.27734-14.5898 9.73633-14.3555 10.3809-14.5215C11.8457-14.8633 13.3691-14.9219 14.7949-13.9844L14.209-12.5293C13.8672-11.6992 14.043-11.1133 14.5801-10.5664L16.875-8.25195C17.3633-7.76367 17.7734-7.74414 18.3398-7.8418L19.4043-8.03711L20.0684-7.36328L20.0293-6.80664C19.9902-6.30859 20.1172-5.92773 20.6055-5.44922L21.3672-4.70703C21.8457-4.22852 22.4609-4.19922 22.9297-4.66797L25.8398-7.58789C26.3086-8.05664 26.2891-8.65234 25.8105-9.13086L25.0391-9.89258C24.5605-10.3711 24.1895-10.5273 23.7109-10.4883L23.1348-10.4395L22.4902-11.0742L22.7344-12.1973C22.8613-12.7637 22.7051-13.2031 22.1191-13.7891L19.9219-15.9766C16.582-19.2969 12.1484-19.2188 9.25781-16.3281ZM10.752-15.957C13.1836-17.7344 16.4746-17.4316 18.7012-15.2051L21.1328-12.793C21.3672-12.5586 21.4062-12.373 21.3379-12.0312L21.0156-10.5469L22.5195-9.0625L23.5059-9.12109C23.7598-9.13086 23.8379-9.11133 24.0332-8.91602L24.6094-8.33984L22.168-5.89844L21.5918-6.47461C21.3965-6.66992 21.3672-6.74805 21.377-7.01172L21.4453-7.98828L19.9512-9.47266L18.4277-9.21875C18.1055-9.15039 17.959-9.17969 17.7148-9.41406L15.7129-11.416C15.459-11.6504 15.4297-11.8164 15.5859-12.1875L16.4648-14.2773C14.9023-15.7324 12.8711-16.3574 10.8398-15.7617C10.6836-15.7227 10.625-15.8496 10.752-15.957Z"/>
  </g>
  <text style="stroke:none;fill:black;font-family:sans-serif;font-size:13;font-weight:bold;" transform="matrix(1 0 0 1 1289 1953)">Exporting</text>
  <text style="stroke:none;fill:black;font-family:sans-serif;font-size:13;" transform="matrix(1 0 0 1 1289 1971)">Symbols should be outlined when exporting to ensure the</text>
  <text style="stroke:none;fill:black;font-family:sans-serif;font-size:13;" transform="matrix(1 0 0 1 1289 1989)">design is preserved when submitting to Xcode.</text>
  <text id="template-version" style="stroke:none;fill:black;font-family:sans-serif;font-size:13;text-anchor:end;" transform="matrix(1 0 0 1 3036 1933)">Template v.4.0</text>
  <text style="stroke:none;fill:black;font-family:sans-serif;font-size:13;text-anchor:end;" transform="matrix(1 0 0 1 3036 1951)">Requires Xcode 14 or greater</text>
  <text id="descriptive-name" style="stroke:none;fill:black;font-family:sans-serif;font-size:13;text-anchor:end;" transform="matrix(1 0 0 1 3036 1969)">Generated from gear</text>
  <text style="stroke:none;fill:black;font-family:sans-serif;font-size:13;text-anchor:end;" transform="matrix(1 0 0 1 3036 1987)">Typeset at 100 points</text>
  <text style="stroke:none;fill:black;font-family:sans-serif;font-size:13;" transform="matrix(1 0 0 1 263 726)">Small</text>
  <text style="stroke:none;fill:black;font-family:sans-serif;font-size:13;" transform="matrix(1 0 0 1 263 1156)">Medium</text>
  <text style="stroke:none;fill:black;font-family:sans-serif;font-size:13;" transform="matrix(1 0 0 1 263 1586)">Large</text>
 </g>
 <g id="Guides">
  <g id="H-reference" style="fill:#27AAE1;stroke:none;" transform="matrix(1 0 0 1 339 696)">
   <path d="M0.993654 0L3.63775 0L29.3281-67.1323L30.0303-67.1323L30.0303-70.459L28.1226-70.459ZM11.6885-24.4799L46.9815-24.4799L46.2315-26.7285L12.4385-26.7285ZM55.1196 0L57.7637 0L30.6382-70.459L29.4326-70.459L29.4326-67.1323Z"/>
  </g>
  <line id="Baseline-S" style="fill:none;stroke:#27AAE1;opacity:1;stroke-width:0.5;" x1="263" x2="3036" y1="696" y2="696"/>
  <line id="Capline-S" style="fill:none;stroke:#27AAE1;opacity:1;stroke-width:0.5;" x1="263" x2="3036" y1="625.541" y2="625.541"/>
  <g id="H-reference" style="fill:#27AAE1;stroke:none;" transform="matrix(1 0 0 1 339 1126)">
   <path d="M0.993654 0L3.63775 0L29.3281-67.1323L30.0303-67.1323L30.0303-70.459L28.1226-70.459ZM11.6885-24.4799L46.9815-24.4799L46.2315-26.7285L12.4385-26.7285ZM55.1196 0L57.7637 0L30.6382-70.459L29.4326-70.459L29.4326-67.1323Z"/>
  </g>
  <line id="Baseline-M" style="fill:none;stroke:#27AAE1;opacity:1;stroke-width:0.5;" x1="263" x2="3036" y1="1126" y2="1126"/>
  <line id="Capline-M" style="fill:none;stroke:#27AAE1;opacity:1;stroke-width:0.5;" x1="263" x2="3036" y1="1055.54" y2="1055.54"/>
  <g id="H-reference" style="fill:#27AAE1;stroke:none;" transform="matrix(1 0 0 1 339 1556)">
   <path d="M0.993654 0L3.63775 0L29.3281-67.1323L30.0303-67.1323L30.0303-70.459L28.1226-70.459ZM11.6885-24.4799L46.9815-24.4799L46.2315-26.7285L12.4385-26.7285ZM55.1196 0L57.7637 0L30.6382-70.459L29.4326-70.459L29.4326-67.1323Z"/>
  </g>
  <line id="Baseline-L" style="fill:none;stroke:#27AAE1;opacity:1;stroke-width:0.5;" x1="263" x2="3036" y1="1556" y2="1556"/>
  <line id="Capline-L" style="fill:none;stroke:#27AAE1;opacity:1;stroke-width:0.5;" x1="263" x2="3036" y1="1485.54" y2="1485.54"/>
  <line id="left-margin-Ultralight-S" style="fill:none;stroke:#00AEEF;stroke-width:0.5;opacity:1.0;" x1="510.77" x2="510.77" y1="600.785" y2="720.121"/>
  <line id="right-margin-Ultralight-S" style="fill:none;stroke:#00AEEF;stroke-width:0.5;opacity:1.0;" x1="608.653" x2="608.653" y1="600.785" y2="720.121"/>
  <line id="left-margin-Regular-S" style="fill:none;stroke:#00AEEF;stroke-width:0.5;opacity:1.0;" x1="1399.72" x2="1399.72" y1="600.785" y2="720.121"/>
  <line id="right-margin-Regular-S" style="fill:none;stroke:#00AEEF;stroke-width:0.5;opacity:1.0;" x1="1499.97" x2="1499.97" y1="600.785" y2="720.121"/>
  <line id="left-margin-Black-S" style="fill:none;stroke:#00AEEF;stroke-width:0.5;opacity:1.0;" x1="2879.86" x2="2879.86" y1="600.785" y2="720.121"/>
  <line id="right-margin-Black-S" style="fill:none;stroke:#00AEEF;stroke-width:0.5;opacity:1.0;" x1="2986.94" x2="2986.94" y1="600.785" y2="720.121"/>
 </g>
 <g id="Symbols">
  <g id="Black-S" transform="matrix(1 0 0 1 2879.86 696)">
   <path class="monochrome-0 multicolor-0:systemGrayColor SFSymbolsPreview8E8E93" d="M53.5645 5.12695C54.1992 5.12695 54.834 5.07812 55.5176 5.0293L57.373 8.54492C58.0566 10.1562 59.8145 11.0352 61.6699 10.7422C63.3789 10.4492 64.6973 9.0332 64.9414 7.27539L65.4785 3.27148C66.748 2.92969 67.9688 2.44141 69.1406 2.00195L72.1191 4.63867C73.4375 5.81055 75.293 6.10352 76.9531 5.17578C78.4668 4.24805 79.1992 2.53906 78.8086 0.830078L77.9297-3.125C78.9551-3.90625 79.9805-4.73633 81.0059-5.66406L84.7168-4.05273C86.3281-3.36914 88.1348-3.85742 89.3555-5.27344C90.3809-6.54297 90.625-8.39844 89.6484-9.96094L87.5-13.4277C88.1836-14.502 88.8184-15.625 89.4043-16.7969L93.457-16.6016C95.2148-16.5039 96.875-17.5781 97.4121-19.2871C97.998-20.8984 97.4121-22.8027 96.0938-23.8281L92.8711-26.3184C93.1641-27.5879 93.457-28.9062 93.6035-30.1758L97.4121-31.4453C99.1699-32.0312 100.244-33.4961 100.244-35.2539C100.244-37.0117 99.1699-38.4766 97.4121-39.0625L93.6035-40.332C93.457-41.6016 93.1641-42.8711 92.8711-44.1895L96.0449-46.6797C97.4121-47.7539 97.998-49.5605 97.4121-51.123C96.875-52.8809 95.2148-53.9062 93.457-53.8574L89.4043-53.7109C88.8184-54.8828 88.1836-56.0059 87.5-57.1289L89.6484-60.5469C90.5762-62.0117 90.3809-63.916 89.3555-65.1855C88.1348-66.6016 86.377-67.0898 84.668-66.4062L80.9082-64.8926C79.9805-65.7227 78.9551-66.5527 77.9297-67.3828L78.8086-71.3379C79.1992-73.0957 78.418-74.8047 76.8555-75.6836C75.2441-76.5625 73.3398-76.3672 72.1191-75.1465L69.1406-72.4609C67.9688-72.9492 66.6992-73.3887 65.4785-73.7793L64.9414-77.7344C64.6973-79.4922 63.3789-80.9082 61.5723-81.25C59.8145-81.4941 58.1543-80.5664 57.4219-79.1504L55.5176-75.5371C54.834-75.5859 54.1992-75.5859 53.5645-75.5859C52.8809-75.5859 52.2461-75.5859 51.5625-75.5371L49.707-79.1016C48.9258-80.6152 47.2656-81.4941 45.4102-81.2012C43.7012-80.9082 42.3828-79.4922 42.1387-77.7344L41.6016-73.7793C40.3809-73.3887 39.1113-72.9492 37.9395-72.4609L35.0098-75.0977C33.7402-76.3672 31.8359-76.5625 30.1758-75.6836C28.6621-74.8047 27.8809-73.0957 28.2715-71.2891L29.1504-67.3828C28.125-66.5527 27.0996-65.7227 26.123-64.8926L22.3633-66.4062C20.7031-67.0898 18.9453-66.6016 17.7246-65.1855C16.6992-63.916 16.5039-62.0117 17.4316-60.5469L19.5801-57.1289C18.8965-56.0059 18.2617-54.8828 17.6758-53.7109L13.623-53.8574C11.8652-53.9062 10.2051-52.8809 9.66797-51.1719C9.08203-49.5605 9.66797-47.7051 10.9863-46.6797L14.209-44.1406C13.916-42.8711 13.623-41.6016 13.4766-40.332L9.66797-39.0625C7.91016-38.4766 6.83594-37.0117 6.83594-35.2539C6.83594-33.4961 7.91016-32.0312 9.66797-31.4453L13.4766-30.1758C13.623-28.9062 13.916-27.5879 14.209-26.3184L11.0352-23.8281C9.66797-22.7539 9.08203-20.8984 9.66797-19.3359C10.2051-17.5781 11.8652-16.5039 13.6719-16.6016L17.6758-16.7969C18.2617-15.625 18.8965-14.502 19.5801-13.4277L17.3828-9.91211C16.4551-8.44727 16.6992-6.54297 17.7246-5.27344C18.9453-3.85742 20.7031-3.36914 22.4121-4.10156L26.0742-5.66406C27.0996-4.73633 28.125-3.90625 29.1504-3.125L28.2715 0.878906C27.9297 2.53906 28.6133 4.24805 30.2246 5.22461C31.7871 6.10352 33.6914 5.85938 34.9609 4.6875L37.9395 2.00195C39.1113 2.44141 40.332 2.92969 41.6016 3.27148L42.1387 7.27539C42.3828 9.0332 43.7012 10.4492 45.5078 10.791C47.2656 11.0352 48.9258 10.1074 49.707 8.59375L51.5625 5.0293C52.2461 5.07812 52.8809 5.12695 53.5645 5.12695ZM53.5645-7.42188C38.1836-7.42188 25.7324-19.873 25.7324-35.2539C25.7324-50.6348 38.1836-63.0859 53.5645-63.0859C68.9453-63.0859 81.3965-50.6348 81.3965-35.2539C81.3965-19.873 68.9453-7.42188 53.5645-7.42188ZM53.5645-21.3867C61.2305-21.3867 67.4316-27.5879 67.4316-35.2539C67.4316-42.9199 61.2305-49.1211 53.5645-49.1211C45.8984-49.1211 39.6973-42.9199 39.6973-35.2539C39.6973-27.5879 45.8984-21.3867 53.5645-21.3867ZM51.9531-22.2656L43.0176-28.125L31.2988-8.64258L40.8691-3.95508ZM43.0176-42.7734L52.1484-48.3398L41.5039-66.7969L31.7871-62.3047ZM65.2832-29.8828L86.8652-29.8828L86.8164-40.8691L65.332-40.8691ZM53.5645-30.6641C50.9766-30.6641 48.9746-32.666 48.9746-35.2539C48.9746-37.8418 50.9766-39.8438 53.5645-39.8438C56.1523-39.8438 58.1543-37.8418 58.1543-35.2539C58.1543-32.666 56.1523-30.6641 53.5645-30.6641Z"/>
  </g>
  <g id="Regular-S" transform="matrix(1 0 0 1 1399.72 696)">
   <path class="monochrome-0 multicolor-0:systemGrayColor SFSymbolsPreview8E8E93" d="M50.1465 2.00195C51.0742 2.00195 51.9043 1.9043 52.9297 1.85547L55.1758 6.15234C55.6641 7.08008 56.5918 7.56836 57.6172 7.42188C58.5938 7.22656 59.375 6.39648 59.5215 5.37109L60.2051 0.585938C61.9629 0.0976562 63.7207-0.585938 65.4785-1.26953L68.9941 1.9043C69.7754 2.63672 70.8008 2.7832 71.7773 2.24609C72.6562 1.70898 73.0469 0.732422 72.8516-0.292969L71.8262-5.0293C73.291-6.10352 74.8047-7.27539 76.123-8.59375L80.5664-6.73828C81.543-6.29883 82.5684-6.5918 83.3008-7.4707C83.9355-8.20312 83.9844-9.27734 83.4473-10.1562L80.9082-14.2578C81.9824-15.7715 82.8125-17.3828 83.6426-19.1406L88.4766-18.8965C89.502-18.8477 90.4297-19.4824 90.7715-20.4102C91.1133-21.3867 90.7715-22.4609 89.9902-23.0469L86.1816-26.0742C86.6699-27.832 87.0605-29.6387 87.207-31.5918L91.748-33.0566C92.7734-33.3984 93.4082-34.1797 93.4082-35.2539C93.4082-36.3281 92.7734-37.1094 91.748-37.4512L87.207-38.916C87.0605-40.8691 86.6699-42.627 86.1816-44.4336L89.9902-47.4609C90.7715-48.0469 91.1133-49.0723 90.7715-50.0488C90.4297-50.9766 89.502-51.6113 88.4766-51.5625L83.6426-51.3672C82.8125-53.125 81.9824-54.6875 80.9082-56.25L83.4473-60.3516C83.9844-61.1816 83.9355-62.2559 83.3008-62.9883C82.5684-63.8672 81.543-64.1113 80.5664-63.7207L76.123-61.9141C74.8047-63.1836 73.291-64.4043 71.8262-65.4785L72.8516-70.166C73.0469-71.2402 72.6562-72.2168 71.7773-72.7051C70.8008-73.2422 69.7754-73.1445 68.9941-72.3633L65.4785-69.2383C63.7207-69.9707 61.9629-70.5566 60.2051-71.0938L59.5215-75.8301C59.375-76.8555 58.5938-77.6855 57.6172-77.8809C56.5918-78.0273 55.6152-77.5391 55.1758-76.6602L52.9297-72.3633C51.9043-72.4121 51.0742-72.4609 50.1465-72.4609C49.1211-72.4609 48.291-72.4121 47.3145-72.3633L45.0195-76.6602C44.5801-77.5391 43.6523-78.0273 42.5781-77.8809C41.6016-77.6855 40.8691-76.8555 40.7227-75.8301L40.0391-71.0938C38.2324-70.5566 36.4746-69.9707 34.7656-69.2383L31.2012-72.3633C30.4199-73.1445 29.3945-73.2422 28.418-72.7051C27.5879-72.2168 27.1484-71.2402 27.3926-70.166L28.3691-65.4785C26.9043-64.4043 25.3906-63.1836 24.0723-61.9141L19.6777-63.7207C18.6523-64.1113 17.6758-63.8672 16.9434-62.9883C16.3086-62.2559 16.2109-61.1816 16.748-60.3516L19.2871-56.25C18.2617-54.6875 17.3828-53.125 16.5527-51.3672L11.7188-51.5625C10.6934-51.6113 9.76562-50.9766 9.42383-50.0488C9.13086-49.0723 9.42383-48.0957 10.2539-47.4609L14.0137-44.4336C13.5742-42.627 13.1836-40.8691 13.0371-38.916L8.44727-37.4512C7.4707-37.1094 6.83594-36.3281 6.83594-35.2539C6.83594-34.1797 7.4707-33.3984 8.44727-33.0566L13.0371-31.5918C13.1836-29.6387 13.5742-27.832 14.0137-26.0742L10.2539-23.0469C9.42383-22.4609 9.13086-21.3867 9.42383-20.4102C9.76562-19.4824 10.6934-18.8477 11.7188-18.8965L16.5527-19.1406C17.3828-17.3828 18.2617-15.7715 19.2871-14.2578L16.748-10.1562C16.2109-9.27734 16.3086-8.20312 16.9434-7.4707C17.6758-6.5918 18.6523-6.29883 19.6777-6.73828L24.0723-8.59375C25.3906-7.27539 26.9043-6.10352 28.3691-5.0293L27.3926-0.292969C27.1973 0.732422 27.5879 1.70898 28.418 2.24609C29.3945 2.7832 30.4199 2.63672 31.2012 1.9043L34.7656-1.26953C36.4746-0.585938 38.2324 0.0976562 40.0391 0.585938L40.7227 5.37109C40.8691 6.39648 41.6016 7.22656 42.5781 7.42188C43.6523 7.56836 44.5312 7.08008 45.0195 6.15234L47.3145 1.85547C48.291 1.9043 49.1211 2.00195 50.1465 2.00195ZM50.1465-4.63867C33.0566-4.63867 19.873-18.2617 19.873-35.2051C19.873-52.1973 33.0566-65.8203 50.1465-65.8203C67.1875-65.8203 80.3711-52.1973 80.3711-35.2051C80.3711-18.2617 67.1875-4.63867 50.1465-4.63867ZM50-24.7559C55.7617-24.7559 60.3516-29.3945 60.3516-35.1562C60.3516-40.918 55.7617-45.5566 50-45.5566C44.2383-45.5566 39.5996-40.918 39.5996-35.1562C39.5996-29.3945 44.2383-24.7559 50-24.7559ZM47.7539-25.7812L42.9688-28.9062L29.7363-7.32422L34.6191-4.39453ZM43.0176-41.5039L47.8027-44.5801L35.1562-66.1133L30.2246-63.2812ZM59.2285-32.4219L84.375-32.4219L84.3262-37.9883L59.2285-37.9883ZM50-30.9082C47.6074-30.9082 45.7031-32.7637 45.7031-35.1562C45.7031-37.5488 47.6074-39.4043 50-39.4043C52.3926-39.4043 54.248-37.5488 54.248-35.1562C54.248-32.7637 52.3926-30.9082 50-30.9082Z"/>
  </g>
  <g id="Ultralight-S" transform="matrix(1 0 0 1 510.77 696)">
   <path class="monochrome-0 multicolor-0:systemGrayColor SFSymbolsPreview8E8E93" d="M48.9204 2.09277C50.2114 2.09277 51.4956 2.04053 52.7026 1.85547L54.5855 5.4712C54.9375 6.17188 55.3203 6.34229 56.3003 6.24122C57.186 6.13673 57.4224 5.85157 57.5689 4.917L58.1616 0.903806C60.5552 0.324705 62.9941-0.540528 65.2061-1.63281L68.1768 0.996101C68.7764 1.50147 69.166 1.60255 70.0518 1.24708C70.749 0.891608 70.958 0.459963 70.7627-0.520018L69.9644-4.39356C72.0195-5.78565 73.9873-7.36621 75.7144-9.22949L79.3403-7.69189C80.0899-7.43407 80.5249-7.36376 81.2573-8.19726C81.9375-8.83886 81.8501-9.27734 81.3584-10.0654L79.228-13.4858C80.7109-15.499 82.0405-17.7007 83.0068-19.9126L87.0234-19.7139C87.9126-19.665 88.2954-19.9365 88.5464-20.7734C88.8428-21.6138 88.6826-22.0522 87.9922-22.5928L84.8648-25.1206C85.5347-27.4688 85.9253-29.9565 86.1172-32.5L89.9317-33.6924C90.8208-33.9888 91.0469-34.4067 91.0469-35.2539C91.0469-36.1011 90.8208-36.519 89.9317-36.8154L86.1172-38.0078C85.9253-40.5513 85.4893-43.0356 84.8648-45.3872L87.9922-47.915C88.5918-48.4102 88.752-48.7998 88.5464-49.6855C88.2954-50.5225 87.9126-50.794 87.0234-50.7451L83.0068-50.5952C81.9951-52.8525 80.7109-55.0054 79.228-57.022L81.3584-60.4424C81.8047-61.1816 81.8921-61.6201 81.2573-62.2617C80.5249-63.0952 80.0899-63.0215 79.3403-62.7671L75.7144-61.2783C73.9873-63.0928 72.0195-64.6768 69.9644-66.0688L70.7627-69.939C70.958-70.9224 70.749-71.354 70.0518-71.7061C69.166-72.1069 68.8218-72.0093 68.1768-71.5005L65.2061-68.875C62.9941-69.9253 60.5552-70.7837 58.1616-71.3662L57.5689-75.376C57.4224-76.3106 57.1406-76.5957 56.2549-76.7002C55.3203-76.8013 54.9341-76.6309 54.5855-75.979L52.7026-72.3179C51.4956-72.4575 50.2114-72.5518 48.9204-72.5518C47.7134-72.5518 46.4746-72.4575 45.2256-72.3179L43.3394-75.979C42.9907-76.6309 42.5625-76.8013 41.6245-76.7002C40.7388-76.5957 40.5059-76.3106 40.3594-75.376L39.7666-71.4116C37.3696-70.7837 34.9307-69.9707 32.7222-68.875L29.7481-71.4551C29.103-72.0093 28.7134-72.0615 27.8731-71.7061C27.1792-71.354 26.9668-70.9224 27.1655-69.939L27.9605-66.0688C25.9053-64.6768 23.9375-63.0928 22.2105-61.2783L18.5425-62.7671C17.835-63.0215 17.4033-63.0952 16.6709-62.2617C16.0361-61.6201 16.0747-61.1816 16.521-60.4878L18.6968-57.022C17.2627-55.0054 15.9297-52.8525 14.918-50.5952L10.9014-50.7451C10.0122-50.794 9.67481-50.5225 9.37842-49.6855C9.04004-48.7998 9.24219-48.5044 9.93604-47.915L13.0601-45.3872C12.3936-43.0356 11.9575-40.5513 11.7656-38.0532L7.99317-36.8154C7.10742-36.519 6.83594-36.1465 6.83594-35.2539C6.83594-34.3613 7.10742-33.9888 7.99317-33.6924L11.7656-32.4546C11.9575-29.9565 12.3482-27.4688 13.0601-25.1206L9.93604-22.5928C9.2876-22.0977 9.08545-21.7046 9.37842-20.7734C9.6294-19.9365 10.0122-19.665 10.9014-19.7139L14.918-19.9126C15.8843-17.7007 17.2627-15.499 18.6514-13.4858L16.5664-10.0654C16.0747-9.27734 15.9907-8.83886 16.6709-8.19726C17.4033-7.36376 17.835-7.43407 18.5425-7.69189L22.2105-9.22949C23.9375-7.36621 25.9053-5.78565 27.9605-4.39356L27.1655-0.520018C26.9702 0.459963 27.1792 0.891608 27.8731 1.24708C28.7588 1.60255 29.103 1.50147 29.7481 0.996101L32.6768-1.63281C34.9307-0.540528 37.3696 0.324705 39.7666 0.949216L40.3594 4.917C40.5059 5.85157 40.7388 6.13673 41.6699 6.24122C42.5625 6.34229 42.9873 6.17188 43.3394 5.4712L45.2256 1.85547C46.3838 2.04053 47.7134 2.09277 48.9204 2.09277ZM48.9204-0.0522822C29.4693-0.0522822 14.2422-15.5825 14.2422-35.2505C14.2422-54.9219 29.4693-70.4067 48.9204-70.4067C68.4136-70.4067 83.686-54.9219 83.686-35.2505C83.686-15.5825 68.4136-0.0522822 48.9204-0.0522822ZM49.0464-26.8447C53.6729-26.8447 57.4453-30.6206 57.4453-35.2471C57.4453-39.919 53.6729-43.6494 49.0464-43.6494C44.3745-43.6494 40.5986-39.919 40.5986-35.2471C40.5986-30.6206 44.3745-26.8447 49.0464-26.8447ZM46.4824-28.0517L44.6489-29.0879L29.6455-4.0093L31.5313-2.98683ZM44.0166-41.5493L45.8955-42.582L31.3872-67.6572L29.5435-66.6416ZM56.731-34.4653L85.6919-34.4653L85.6885-36.5806L56.731-36.5806ZM49.0464-29.001C45.5186-29.001 42.7969-31.7647 42.7969-35.2471C42.7969-38.7749 45.5186-41.4931 49.0464-41.4931C52.5288-41.4931 55.2471-38.7749 55.2471-35.2471C55.2471-31.7647 52.5288-29.001 49.0464-29.001Z"/>
  </g>
 </g>
</svg>
